<?xml version="1.0" encoding="utf-8"?>
<svg viewBox="0 0 512 512" xmlns="http://www.w3.org/2000/svg" xmlns:bx="https://boxy-svg.com">
  <path style="fill: rgba(121, 121, 121, 0.61);" d="M 316.029 299.094 H 343.296 A 27.267 34 0 0 1 370.563 333.094 V 333.094 A 27.267 34 0 0 1 343.296 367.094 H 316.029 V 299.094 Z" bx:shape="rect 316.029 299.094 54.534 68 0 34 34 0 1@8a36df60"/>
  <path style="fill: rgba(76, 76, 76, 0.89);" d="M 305.727 490.854 C 296.991 503.566 280.977 510.403 275.899 510.403 C 270.745 510.403 263.137 505.25 255.774 500.25 C 248.411 495.25 241.292 490.403 236.63 490.403 C 231.966 490.403 224.848 495.25 217.485 500.25 C 210.122 505.25 202.513 510.403 197.359 510.403 C 192.205 510.403 184.597 505.25 177.234 500.25 C 169.871 495.25 162.752 490.403 158.089 490.403 C 153.426 490.403 146.307 495.25 138.944 500.25 C 131.581 505.25 123.973 510.403 118.818 510.403 C 113.664 510.403 106.055 505.25 98.692 500.25 C 91.33 495.25 84.211 490.403 79.547 490.403 C 74.886 490.403 67.766 495.25 60.404 500.25 C 53.041 505.25 45.432 510.403 40.278 510.403 C 35.204 510.403 19.065 503.723 10.326 491.008 C 3.654 481.298 0 462.307 0 462.307 L 0 274.665 C 0 180.777 70.779 104.665 158.088 104.665 L 158.101 104.665 C 245.41 104.665 316.189 180.777 316.189 274.665 L 316.189 462.307 C 316.189 462.307 312.393 481.155 305.727 490.854 Z"/>
  <ellipse style="fill: rgb(183, 183, 183);" cx="203.516" cy="255.792" rx="14.49" ry="18.953"/>
  <path style="fill: rgba(189, 189, 189, 0.5);" d="M 110.788 297.787 H 140.734 A 29.946 34 0 0 1 170.679 331.787 V 331.787 A 29.946 34 0 0 1 140.734 365.787 H 110.788 V 297.787 Z" bx:shape="rect 110.788 297.787 59.891 68 0 34 34 0 1@38f42259"/>
  <rect style="fill: rgb(183, 183, 183);" x="124.572" y="223.082" width="14.879" height="32" rx="8" ry="8"/>
  <rect style="fill: rgb(183, 183, 183);" x="267.497" y="222.149" width="14.879" height="32" rx="8" ry="8"/>
  <text style="fill: rgba(188, 155, 221, 0.8); font-family: 'SF Compact Rounded'; font-size: 125px; white-space: pre;" x="275.091" y="155.048">Boo!</text>
</svg>